HIERARCHY
ROOT Hip
{
    OFFSET 0.0 0.0 0.0
    CHANNELS 6 Xposition Yposition Zposition Zrotation Xrotation Yrotation
    JOINT RightHip
    {
        OFFSET -0.5949747468305833 0.0 0.0
        CHANNELS 3 Zrotation Xrotation Yrotation
        JOINT RightKnee
        {
            OFFSET 0.0 0.0 -0.6147815070493501
            CHANNELS 3 Zrotation Xrotation Yrotation
            JOINT RightAnkle
            {
                OFFSET 0.0 0.0 -0.4367439337490058
                CHANNELS 3 Zrotation Xrotation Yrotation
                End Site
                {
                    OFFSET 0.0 -0.17469757349960233 0.0
                }
            }
        }
    }
    JOINT LeftHip
    {
        OFFSET 0.5949747468305833 0.0 0.0
        CHANNELS 3 Zrotation Xrotation Yrotation
        JOINT LeftKnee
        {
            OFFSET 0.0 0.0 -0.6147815070493501
            CHANNELS 3 Zrotation Xrotation Yrotation
            JOINT LeftAnkle
            {
                OFFSET 0.0 0.0 -0.4367439337490058
                CHANNELS 3 Zrotation Xrotation Yrotation
                End Site
                {
                    OFFSET 0.0 -0.17469757349960233 0.0
                }
            }
        }
    }
    JOINT Spine
    {
        OFFSET 0.0 0.0 0.9899494936611667
        CHANNELS 3 Zrotation Xrotation Yrotation
        JOINT Thorax
        {
            OFFSET 0.0 0.0 0.7008920048172758
            CHANNELS 3 Zrotation Xrotation Yrotation
            JOINT Neck
            {
                OFFSET 0.0 0.0 0.3481908611026159
                CHANNELS 3 Zrotation Xrotation Yrotation
                End Site
                {
                    OFFSET 0.0 0.0 0.13927634444104633
                }
            }
            JOINT LeftShoulder
            {
                OFFSET 0.7124305878374692 0.0 0.0
                CHANNELS 3 Zrotation Xrotation Yrotation
                JOINT LeftElbow
                {
                    OFFSET 0.33322858510271786 0.0 0.0
                    CHANNELS 3 Zrotation Xrotation Yrotation
                    JOINT LeftWrist
                    {
                        OFFSET 0.3414213562373094 0.0 0.0
                        CHANNELS 3 Zrotation Xrotation Yrotation
                        End Site
                        {
                            OFFSET 0.13656854249492384 0.0 0.0
                        }
                    }
                }
            }
            JOINT RightShoulder
            {
                OFFSET -0.7124305878374692 0.0 0.0
                CHANNELS 3 Zrotation Xrotation Yrotation
                JOINT RightElbow
                {
                    OFFSET -0.33322858510271786 0.0 0.0
                    CHANNELS 3 Zrotation Xrotation Yrotation
                    JOINT RightWrist
                    {
                        OFFSET -0.3414213562373094 0.0 0.0
                        CHANNELS 3 Zrotation Xrotation Yrotation
                        End Site
                        {
                            OFFSET -0.13656854249492384 0.0 0.0
                        }
                    }
                }
            }
        }
    }
}
MOTION
Frames: 7
Frame Time: 0.03333333333333333
0.0 0.0 1.7 -90.0 0.0 135.0 -180.0 1.2171455823273135e-15 45.00000000000001 -3.4426075798195696e-15 -8.311189909128823e-15 45.00000000000001 6.3611093629270335e-15 0.0 0.0 -180.0 6.457199933851638e-16 -105.94539590092286 1.2914399867703279e-15 6.993698818898917e-15 -74.05460409907715 6.3611093629270335e-15 0.0 0.0 -178.8426079018321 6.91017985440616 -135.27322429739493 30.54530573529466 -5.0267898143155604e-15 -1.8409367047966508e-14 -167.2708693152671 -50.89985315052069 -59.15578739478488 53.085948302316076 68.6932702791081 -152.47339789829067 -146.44269023807928 9.181470507576432e-16 3.045149269734496e-15 0.0 0.0 0.0 -1.610850597122438 -29.915970012809115 -5.136814932467422e-15 0.0 0.0 0.0 0.0 0.0 0.0
0.0 0.0 1.7 -90.0 0.0 135.0 -180.0 1.2171455823273135e-15 45.00000000000001 3.5312324510451215e-15 8.273924221971205e-15 43.77533969071541 0.0 0.0 -6.3611093629270335e-15 -180.0 6.457199933851638e-16 -105.94539590092286 6.401906535952195e-15 3.097617328501058e-15 -75.2290650506643 0.0 0.0 0.0 -178.844891131358 6.896681143335557 -135.27215315501243 30.13013422081461 -2.8357802929229415e-15 1.3938325285552055e-14 -167.1255349407195 -51.08549284577195 -59.325253310726715 51.20300115797678 69.54799323085439 -151.08325468190677 -146.749454984231 -4.549959112248488e-16 -1.5237981300728596e-15 0.0 0.0 0.0 -1.5830583415430202 -29.916299917874696 8.560069000371486e-15 0.0 0.0 0.0 0.0 0.0 0.0
0.0 0.0 1.7 -90.0 0.0 135.0 -180.0 1.2171455823273135e-15 45.00000000000001 0.0 0.0 42.50352964774795 6.3611093629270335e-15 0.0 0.0 -180.0 6.457199933851638e-16 -105.94539590092286 -1.068972362584634e-15 8.932229438514563e-15 -76.35106945559916 0.0 0.0 0.0 -178.85173183100736 6.856233488875071 -135.26895633621075 29.574154891946968 -1.067734001034718e-14 9.397498174462664e-15 -166.79641275745234 -51.42463413291225 -59.38213668322702 49.26604265133726 70.33658072321683 -149.4800979191673 -147.0690821170804 -4.507438579282154e-16 -1.525061308598727e-15 0.0 0.0 -1.5902773407317584e-15 -1.5422698747831383 -29.917284495651643 -6.844966815556626e-15 0.0 0.0 0.0 0.0 0.0 0.0
0.0 0.0 1.7 -90.0 0.0 135.0 -180.0 1.2171455823273135e-15 45.00000000000001 -3.717096545640161e-15 -8.192107050364145e-15 41.18849268209895 6.3611093629270335e-15 0.0 0.0 -180.0 6.457199933851638e-16 -105.94539590092286 -0.0 0.0 -77.4190637133462 0.0 0.0 0.0 -178.8631030686938 6.788982300287951 -135.2636834217098 28.881801682258825 1.2320265135963381e-14 -3.1726828218460757e-15 -166.28038657508964 -51.91908158357201 -59.32102118290823 47.25133140609612 71.05517400040422 -147.64828542077242 -147.40518366227218 -3.4990224534235157e-15 -6.33839074736203e-16 0.0 0.0 1.5902773407317584e-15 -1.4891821717220763 -29.91890841082813 3.419919301455197e-15 0.0 0.0 0.0 0.0 0.0 0.0
0.0 0.0 1.7 -90.0 0.0 135.0 -180.0 1.2171455823273135e-15 45.00000000000001 -3.813589165651842e-15 -8.147635382726625e-15 39.83509176111431 6.3611093629270335e-15 3.1805546814635168e-15 3.1805546814635168e-15 -180.0 6.457199933851638e-16 -105.94539590092286 -4.02178848545e-15 -4.92838002851036e-15 -78.43210578109827 0.0 0.0 0.0 -178.87896007315993 6.695169831188866 -135.2564162344317 28.057188085379103 -1.0800805200759024e-14 9.255331903872854e-15 -165.56889717227725 -52.57167441706428 -59.13169664199793 45.13811067880142 71.69884176972101 -145.57440234900216 -147.76154455695834 -5.6695090140633415e-15 3.2938369551356605e-15 0.0 0.0 -7.951386703658792e-16 -1.4246243440754445 -29.92114636008086 -5.124524267480942e-15 0.0 0.0 0.0 0.0 0.0 0.0
0.0 0.0 1.7 -90.0 0.0 135.0 -180.0 1.2171455823273135e-15 45.00000000000001 3.911848512003354e-15 8.100917594530455e-15 38.44917703350414 0.0 0.0 0.0 -180.0 6.457199933851638e-16 -105.94539590092286 -2.4472986485870594e-15 2.0314175854322625e-15 -79.38977393857313 -6.361109362927035e-15 3.531125038440127e-31 -6.361109362927035e-15 -178.89924040692335 6.575135018808098 -135.2472676318395 27.104198838068115 -2.3245398960649375e-14 1.214637957258238e-14 -164.64718140075385 -53.386121297654135 -58.798290035787765 42.91015099115827 72.26149559162991 -143.24893263802755 -148.14221371197854 -1.9656578640963453e-15 -1.0927731705189046e-15 0.0 0.0 7.951386703658792e-16 -1.3495573593076138 -29.92396345200054 -5.117690670755993e-15 0.0 0.0 0.0 0.0 0.0 0.0
0.0 0.0 1.7 -90.0 0.0 135.0 -180.0 1.2171455823273135e-15 45.00000000000001 2.020389226098675e-15 -6.0317277543157045e-15 37.03760673688236 6.3611093629270335e-15 0.0 0.0 -180.0 6.457199933851638e-16 -105.94539590092286 -2.4312273604572644e-15 2.0506246861733372e-15 -80.29207936535433 0.0 0.0 0.0 -178.92386420763157 6.42931322353232 -135.23637983478358 26.02658469753484 -1.3827860952102645e-14 -3.33299011773285e-15 -163.49299721958326 -54.366701173478134 -58.297879089791245 40.55766773818588 72.7358455424318 -140.6683033185052 -148.55160549986857 -1.9617412676347425e-15 -1.0997887250506698e-15 0.0 0.0 0.0 -1.2650739045888206 -29.927315732251078 -6.8125543689722095e-15 0.0 0.0 0.0 0.0 0.0 0.0
